# Blender v2.79 (sub 0) OBJ File: 'hombre.blend'
# www.blender.org
mtllib antebrazoizq.mtl
o casual_male.002_Plane.001
v -0.032819 -0.048158 -0.079622
v -0.013328 -0.091186 0.011880
v -0.046491 -0.034381 0.105037
v -0.044236 0.006456 -0.086115
v -0.049399 0.013583 0.099953
v -0.041914 0.080912 0.061329
v -0.038106 0.091117 0.007388
v -0.042391 0.072557 -0.050070
v 0.036215 -0.085237 -0.056373
v 0.034832 -0.107586 0.002209
v 0.040499 -0.082223 0.060844
v 0.049693 -0.039962 0.079518
v 0.069834 0.014132 0.051721
v 0.081631 0.032854 0.000270
v 0.068188 0.007446 -0.053459
v 0.048372 -0.040919 -0.078656
v 0.182949 -0.119437 -0.083130
v 0.166991 -0.152685 -0.060836
v 0.160252 -0.163613 -0.001450
v 0.166619 -0.151743 0.048390
v 0.182585 -0.119242 0.067148
v 0.199111 -0.085561 0.046940
v 0.206071 -0.071745 -0.004348
v 0.198900 -0.085831 -0.063217
v 0.122099 -0.085935 -0.078419
v 0.105205 -0.122399 -0.055169
v 0.097879 -0.138470 0.000532
v 0.105380 -0.121714 0.054295
v 0.122906 -0.086191 0.075912
v 0.144408 -0.042665 0.052890
v 0.152682 -0.022870 -0.001772
v 0.139117 -0.046470 -0.057087
v 0.142268 -0.099901 -0.087203
v 0.162778 -0.063544 -0.066960
v 0.182409 -0.048626 -0.005267
v 0.181275 -0.067023 0.051288
v 0.164371 -0.106096 0.073924
v 0.144145 -0.139961 0.054433
v 0.129789 -0.152351 0.001449
v 0.128315 -0.136085 -0.061969
v -0.008831 -0.057008 0.078309
v -0.012415 -0.058360 -0.061301
v -0.005171 0.000579 0.086380
v -0.004335 0.060657 0.049863
v 0.011598 0.083874 0.004426
v 0.016253 0.060257 -0.059702
v -0.004593 -0.005110 -0.081916
v -0.000593 -0.098365 0.007715
vt 0.758704 0.532225
vt 0.732474 0.553032
vt 0.730469 0.530558
vt 0.733852 0.489803
vt 0.758345 0.509694
vt 0.731908 0.509619
vt 0.742136 0.446494
vt 0.764508 0.466806
vt 0.736539 0.466360
vt 0.766597 0.573721
vt 0.744948 0.596280
vt 0.737689 0.573666
vt 0.714841 0.573489
vt 0.708810 0.551027
vt 0.707135 0.529571
vt 0.705253 0.507996
vt 0.707957 0.487806
vt 0.714065 0.469106
vt 0.720594 0.447378
vt 0.731399 0.419319
vt 0.726361 0.600170
vt 0.760717 0.488002
vt 0.761705 0.553459
vt 0.750029 0.423238
vt 0.769591 0.448144
vt 0.773181 0.533961
vt 0.775320 0.552960
vt 0.775196 0.510765
vt 0.779162 0.489798
vt 0.783600 0.470503
vt 0.787545 0.452040
vt 0.793056 0.431718
vt 0.789524 0.592994
vt 0.780224 0.570768
vt 0.794273 0.550877
vt 0.797834 0.568284
vt 0.802538 0.590275
vt 0.800868 0.453010
vt 0.805356 0.433385
vt 0.796403 0.471195
vt 0.792861 0.490228
vt 0.790940 0.511147
vt 0.791646 0.533381
vt 0.720134 0.601974
vt 0.701456 0.571270
vt 0.724925 0.418942
vt 0.702840 0.449247
vt 0.693785 0.465715
vt 0.685106 0.485261
vt 0.681555 0.508533
vt 0.684342 0.531873
vt 0.691168 0.552074
vt 0.775635 0.593782
vt 0.780183 0.428652
vn 0.3533 0.6438 -0.6788
vn 0.0379 -0.0154 -0.9992
vn 0.4625 0.5157 -0.7212
vn 0.4454 0.5921 0.6716
vn 0.6265 0.7785 -0.0386
vn 0.6282 0.7779 -0.0129
vn -0.2180 -0.6729 0.7068
vn 0.0337 -0.0476 0.9983
vn 0.1429 0.0027 0.9897
vn -0.4368 -0.6789 -0.5902
vn -0.3654 -0.9307 0.0138
vn -0.3220 -0.6723 -0.6666
vn -0.0846 -0.7224 -0.6863
vn 0.1707 0.0360 -0.9847
vn 0.3295 0.6574 -0.6777
vn 0.3609 0.9274 0.0985
vn 0.4039 0.6697 0.6232
vn 0.3308 0.2324 0.9147
vn -0.0150 -0.6292 0.7771
vn -0.3797 -0.9248 0.0231
vn 0.4480 0.5913 0.6706
vn -0.1600 0.0444 -0.9861
vn -0.3305 -0.6959 0.6376
vn 0.3083 0.6465 -0.6978
vn -0.1558 -0.0138 -0.9877
vn 0.6384 0.7683 -0.0465
vn 0.5378 0.5768 0.6148
vn 0.1665 -0.0452 0.9850
vn -0.2584 -0.7035 0.6621
vn -0.3936 -0.9185 0.0387
vn -0.4280 -0.6874 -0.5868
vn 0.0642 -0.0836 -0.9944
vn -0.3012 -0.7523 -0.5860
vn -0.3457 -0.9383 0.0122
vn -0.2254 -0.7711 0.5955
vn 0.2385 -0.1648 0.9570
vn 0.6428 0.4735 0.6022
vn 0.7068 0.7074 0.0053
vn 0.4753 0.6028 -0.6409
vn -0.4212 -0.8985 0.1238
vn 0.2979 -0.4521 -0.8408
vn 0.3381 -0.2323 0.9120
vn 0.3779 0.3080 0.8731
vn 0.5214 0.6640 0.5359
vn 0.2397 0.9697 0.0473
vn 0.0590 0.7910 -0.6090
vn 0.0824 0.1907 -0.9782
vn -0.4195 -0.9077 0.0060
usemtl Casual_Male
s 1
f 32/1/1 16/2/2 15/3/3
f 13/4/4 31/5/5 14/6/6
f 11/7/7 29/8/8 12/9/9
f 26/10/10 10/11/11 9/12/12
f 16/2/2 42/13/13 47/14/14
f 15/3/3 47/14/14 46/15/15
f 14/6/6 46/15/15 45/16/16
f 13/4/4 45/16/16 44/17/17
f 43/18/18 13/4/4 44/17/17
f 41/19/19 12/9/9 43/18/18
f 48/20/20 11/7/7 41/19/19
f 9/12/12 48/21/20 42/13/13
f 12/9/9 30/22/21 13/4/4
f 25/23/22 9/12/12 16/2/2
f 10/24/11 28/25/23 11/7/7
f 31/5/5 15/3/3 14/6/6
f 25/23/22 34/26/24 33/27/25
f 32/1/1 35/28/26 34/26/24
f 35/28/26 30/22/21 36/29/27
f 36/29/27 29/8/8 37/30/28
f 29/8/8 38/31/29 37/30/28
f 28/25/23 39/32/30 38/31/29
f 39/33/30 26/10/10 40/34/31
f 40/34/31 25/23/22 33/27/25
f 40/34/31 17/35/32 18/36/33
f 39/33/30 18/36/33 19/37/34
f 20/38/35 39/32/30 19/39/34
f 21/40/36 38/31/29 20/38/35
f 22/41/37 37/30/28 21/40/36
f 23/42/38 36/29/27 22/41/37
f 24/43/39 35/28/26 23/42/38
f 17/35/32 34/26/24 24/43/39
f 42/13/13 2/44/40 1/45/41
f 2/46/40 41/19/19 3/47/42
f 3/47/42 43/18/18 5/48/43
f 5/48/43 44/17/17 6/49/44
f 44/17/17 7/50/45 6/49/44
f 45/16/16 8/51/46 7/50/45
f 46/15/15 4/52/47 8/51/46
f 47/14/14 1/45/41 4/52/47
f 32/1/1 25/23/22 16/2/2
f 13/4/4 30/22/21 31/5/5
f 11/7/7 28/25/23 29/8/8
f 26/10/10 27/53/48 10/11/11
f 16/2/2 9/12/12 42/13/13
f 15/3/3 16/2/2 47/14/14
f 14/6/6 15/3/3 46/15/15
f 13/4/4 14/6/6 45/16/16
f 43/18/18 12/9/9 13/4/4
f 41/19/19 11/7/7 12/9/9
f 48/20/20 10/24/11 11/7/7
f 9/12/12 10/11/11 48/21/20
f 12/9/9 29/8/8 30/22/21
f 25/23/22 26/10/10 9/12/12
f 10/24/11 27/54/48 28/25/23
f 31/5/5 32/1/1 15/3/3
f 25/23/22 32/1/1 34/26/24
f 32/1/1 31/5/5 35/28/26
f 35/28/26 31/5/5 30/22/21
f 36/29/27 30/22/21 29/8/8
f 29/8/8 28/25/23 38/31/29
f 28/25/23 27/54/48 39/32/30
f 39/33/30 27/53/48 26/10/10
f 40/34/31 26/10/10 25/23/22
f 40/34/31 33/27/25 17/35/32
f 39/33/30 40/34/31 18/36/33
f 20/38/35 38/31/29 39/32/30
f 21/40/36 37/30/28 38/31/29
f 22/41/37 36/29/27 37/30/28
f 23/42/38 35/28/26 36/29/27
f 24/43/39 34/26/24 35/28/26
f 17/35/32 33/27/25 34/26/24
f 42/13/13 48/21/20 2/44/40
f 2/46/40 48/20/20 41/19/19
f 3/47/42 41/19/19 43/18/18
f 5/48/43 43/18/18 44/17/17
f 44/17/17 45/16/16 7/50/45
f 45/16/16 46/15/15 8/51/46
f 46/15/15 47/14/14 4/52/47
f 47/14/14 42/13/13 1/45/41
