# Blender v2.79 (sub 0) OBJ File: 'hombre.blend'
# www.blender.org
mtllib antepiernaizq.mtl
o casual_male.008_Plane.007
v 0.030744 -0.335652 -0.087151
v -0.006814 -0.342591 -0.068244
v -0.016913 -0.348572 -0.017340
v 0.006691 -0.351605 0.041927
v 0.045179 -0.353514 0.076551
v 0.080523 -0.344071 0.050931
v 0.094082 -0.332499 -0.014580
v 0.072530 -0.331503 -0.067137
v -0.019218 0.042202 -0.106946
v -0.093470 0.026438 -0.063543
v -0.104810 -0.008902 0.008298
v -0.072664 0.032013 0.107830
v -0.019735 0.058153 0.095645
v 0.044900 0.079093 0.074824
v 0.068602 0.085190 0.005180
v 0.047797 0.071244 -0.060967
v 0.099234 -0.195908 0.000737
v 0.068770 -0.209157 -0.055385
v 0.021161 -0.205746 0.099478
v 0.076120 -0.194519 0.066683
v -0.065960 -0.233511 0.006870
v -0.033075 -0.219945 0.068971
v 0.004522 -0.228278 -0.078489
v -0.048078 -0.236646 -0.049044
v 0.074642 -0.293187 -0.065043
v 0.081978 -0.281581 0.055171
v -0.006499 -0.299835 0.054972
v -0.023994 -0.311135 -0.062371
v 0.100537 -0.281526 -0.006439
v 0.037743 -0.289220 0.080009
v -0.032538 -0.309216 -0.005388
v 0.020801 -0.305122 -0.085370
vt 0.489312 0.339660
vt 0.489858 0.231482
vt 0.513093 0.232035
vt 0.649799 0.240251
vt 0.642190 0.341393
vt 0.628243 0.244443
vt 0.605602 0.243789
vt 0.579053 0.324582
vt 0.580317 0.240388
vt 0.550928 0.336711
vt 0.537966 0.233221
vt 0.559924 0.236336
vt 0.519482 0.338723
vt 0.696166 0.337408
vt 0.673511 0.231450
vt 0.619501 0.337672
vt 0.582037 0.208451
vt 0.561512 0.204447
vt 0.625619 0.212124
vt 0.606001 0.211686
vt 0.643723 0.208625
vt 0.663196 0.201074
vt 0.516541 0.199320
vt 0.540622 0.200335
vt 0.494500 0.199720
vt 0.498264 0.182219
vt 0.519125 0.184140
vt 0.638061 0.187310
vt 0.623065 0.188819
vt 0.604955 0.190305
vt 0.581681 0.189961
vt 0.559857 0.188271
vt 0.539825 0.185961
vt 0.658768 0.183908
vt 0.463871 0.337818
vt 0.668826 0.341858
vn 0.8119 0.0718 -0.5793
vn 0.9955 0.0596 -0.0738
vn 0.6669 0.0510 -0.7434
vn 0.7637 0.0308 0.6448
vn 0.2781 0.0298 0.9601
vn 0.0629 -0.1295 0.9896
vn -0.6687 -0.2577 0.6974
vn -0.9784 -0.1941 0.0707
vn -0.9517 -0.2829 0.1190
vn -0.7267 -0.1638 -0.6672
vn -0.0960 -0.0160 -0.9953
vn -0.7893 -0.1852 -0.5855
vn 0.0977 -0.0607 -0.9934
vn 0.9939 0.1081 0.0221
vn -0.3274 -0.0829 0.9413
vn -0.9172 -0.3777 0.1268
vn -0.7852 -0.2212 -0.5784
vn 0.0576 -0.1491 0.9871
vn -0.6754 -0.3140 0.6673
vn 0.7875 -0.0494 0.6143
vn 0.9966 -0.0148 -0.0815
vn 0.6826 0.0640 -0.7280
vn -0.0656 0.0418 -0.9970
vn 0.9872 -0.1002 -0.1240
vn 0.6825 0.0314 -0.7303
vn 0.7925 -0.0528 0.6076
vn 0.0079 -0.1264 0.9920
vn -0.7596 -0.3571 0.5436
vn -0.9105 -0.4100 0.0543
vn -0.6922 -0.2565 -0.6746
vn 0.0324 0.0687 -0.9971
vn 0.7190 0.0615 0.6922
usemtl Casual_Male
s 1
f 16/1/1 17/2/2 18/3/3
f 20/4/4 13/5/5 19/6/6
f 22/7/7 11/8/8 21/9/9
f 10/10/10 23/11/11 24/12/12
f 9/13/13 18/3/3 23/11/11
f 15/14/14 20/4/4 17/15/2
f 19/6/6 12/16/15 22/7/7
f 11/8/8 24/12/12 21/9/9
f 31/17/16 24/12/12 28/18/17
f 30/19/18 22/7/7 27/20/19
f 17/15/2 26/21/20 29/22/21
f 23/11/11 25/23/22 32/24/23
f 28/18/17 23/11/11 32/24/23
f 27/20/19 21/9/9 31/17/16
f 20/4/4 30/19/18 26/21/20
f 18/3/3 29/25/21 25/23/22
f 25/23/22 7/26/24 8/27/25
f 6/28/26 30/19/18 5/29/27
f 4/30/28 31/17/16 3/31/29
f 2/32/30 32/24/23 1/33/31
f 32/24/23 8/27/25 1/33/31
f 29/22/21 6/28/26 7/34/24
f 5/29/27 27/20/19 4/30/28
f 3/31/29 28/18/17 2/32/30
f 16/1/1 15/35/14 17/2/2
f 20/4/4 14/36/32 13/5/5
f 22/7/7 12/16/15 11/8/8
f 10/10/10 9/13/13 23/11/11
f 9/13/13 16/1/1 18/3/3
f 15/14/14 14/36/32 20/4/4
f 19/6/6 13/5/5 12/16/15
f 11/8/8 10/10/10 24/12/12
f 31/17/16 21/9/9 24/12/12
f 30/19/18 19/6/6 22/7/7
f 17/15/2 20/4/4 26/21/20
f 23/11/11 18/3/3 25/23/22
f 28/18/17 24/12/12 23/11/11
f 27/20/19 22/7/7 21/9/9
f 20/4/4 19/6/6 30/19/18
f 18/3/3 17/2/2 29/25/21
f 25/23/22 29/25/21 7/26/24
f 6/28/26 26/21/20 30/19/18
f 4/30/28 27/20/19 31/17/16
f 2/32/30 28/18/17 32/24/23
f 32/24/23 25/23/22 8/27/25
f 29/22/21 26/21/20 6/28/26
f 5/29/27 30/19/18 27/20/19
f 3/31/29 31/17/16 28/18/17
